# File created by Blade
# Date/Time:  Tue Apr 07 20:41:02 2015
# Frame Rate: 120.000 fps
#------------------------------------------------------
:FULLY-SPECIFIED
:DEGREES
626
root 0.966073 34.044256 0.627962 0.572719 -14.834350 -48.091627
Spine 18.769713 18.964400 44.225572
Head -2.545431 -8.506368 14.428435
LeftShoulder -21.225357 30.985110 24.523813
LeftArm 69.521588 -74.672329 -71.415914
LeftForeArm 8.078912 -0.000000 29.813122
LeftHand 9.692619 0.000000 17.011725
LeftHandThumb1 -26.253704 0.000000 33.147579
RightShoulder -8.687283 44.526441 -29.006970
RightArm 28.617818 75.471914 61.885772
RightForeArm 41.297645 -0.000000 50.985183
RightHand -1.499479 -0.000000 26.916796
RightHandThumb1 -24.326973 -0.000000 -32.862282
LeftUpLeg 1.158197 -7.051960 41.723296
LeftLeg 28.190858 -0.000000 -0.000000
LeftFoot -20.354991 28.354810 -12.051559
LeftToeBase -7.916429 -0.000000 0.000000
RightUpLeg -159.376515 -24.590895 50.854005
RightLeg 33.337239 -0.000000 -0.000000
RightFoot 36.527547 9.226876 -3.220370
RightToeBase 19.929718 -0.000000 -0.000000
627
root 0.971177 34.044362 0.630246 0.748922 -14.804733 -48.085371
Spine 18.518261 19.108711 44.243880
Head -2.326287 -8.510153 14.313077
LeftShoulder -21.230777 31.020831 24.510551
LeftArm 69.318049 -74.630585 -71.204627
LeftForeArm 8.041281 -0.000000 29.681527
LeftHand 9.703640 -0.000000 16.752746
LeftHandThumb1 -26.253704 0.000000 33.147579
RightShoulder -8.864460 44.713335 -29.221358
RightArm 29.101260 75.542524 62.211930
RightForeArm 40.852028 -0.000000 51.263513
RightHand -1.500934 -0.000000 26.944106
RightHandThumb1 -24.326973 -0.000000 -32.862282
LeftUpLeg 1.049336 -7.036912 41.683077
LeftLeg 28.094575 -0.000000 -0.000000
LeftFoot -20.259449 28.600795 -11.797595
LeftToeBase -7.912539 -0.000000 0.000000
RightUpLeg -159.490458 -24.569258 50.871321
RightLeg 32.783842 -0.000000 -0.000000
RightFoot 36.378466 9.494670 -3.117263
RightToeBase 20.083455 -0.000000 -0.000000
628
root 0.977437 34.045118 0.631139 0.948792 -14.770489 -48.104733
Spine 18.235965 19.231686 44.276908
Head -2.026450 -8.389427 14.198651
LeftShoulder -21.234683 31.069402 24.490004
LeftArm 68.962301 -74.583236 -70.858353
LeftForeArm 8.025438 0.000000 29.542465
LeftHand 9.770747 -0.000000 16.548927
LeftHandThumb1 -26.253704 0.000000 33.147579
RightShoulder -8.996551 44.888156 -29.404075
RightArm 29.628386 75.586594 62.579412
RightForeArm 40.478239 -0.000000 51.537943
RightHand -1.516875 -0.000000 26.920126
RightHandThumb1 -24.326973 -0.000000 -32.862282
LeftUpLeg 0.927023 -7.025665 41.670672
LeftLeg 28.000636 -0.000000 -0.000000
LeftFoot -20.201957 28.813393 -11.559581
LeftToeBase -7.746333 -0.000000 0.000000
RightUpLeg -159.615033 -24.535200 50.933400
RightLeg 32.219837 -0.000000 -0.000000
RightFoot 36.206240 9.799415 -2.908450
RightToeBase 19.949374 -0.000000 -0.000000
629
root 0.984588 34.045356 0.630221 1.170628 -14.730635 -48.111090
Spine 17.929075 19.382381 44.298624
Head -1.766637 -8.436130 14.113070
LeftShoulder -21.167471 31.050886 24.487553
LeftArm 68.302107 -74.544866 -70.210879
LeftForeArm 7.952681 -0.000000 29.406532
LeftHand 9.722061 0.000000 16.608576
LeftHandThumb1 -26.253704 0.000000 33.147579
RightShoulder -9.125818 45.047386 -29.589131
RightArm 30.199469 75.649472 62.994016
RightForeArm 40.097896 -0.000000 51.794280
RightHand -1.520802 -0.000000 26.999503
RightHandThumb1 -24.326973 -0.000000 -32.862282
LeftUpLeg 0.770484 -7.005837 41.645367
LeftLeg 27.912731 -0.000000 -0.000000
LeftFoot -20.111881 29.066301 -11.317141
LeftToeBase -7.682099 -0.000000 0.000000
RightUpLeg -159.750200 -24.453876 51.002415
RightLeg 31.631588 -0.000000 -0.000000
RightFoot 36.021149 10.087266 -2.832620
RightToeBase 19.897755 -0.000000 -0.000000
630
root 0.990997 34.048345 0.628861 1.395138 -14.692705 -48.160919
Spine 17.628061 19.516411 44.363244
Head -1.499734 -8.461039 14.043108
LeftShoulder -21.085606 31.053943 24.491974
LeftArm 67.593543 -74.530853 -69.580126
LeftForeArm 7.872099 -0.000000 29.302168
LeftHand 9.776165 -0.000000 16.475158
LeftHandThumb1 -26.253704 0.000000 33.147579
RightShoulder -9.229574 45.212082 -29.762901
RightArm 30.705800 75.692026 63.336694
RightForeArm 39.773350 0.000000 52.033564
RightHand -1.474895 0.000000 27.084031
RightHandThumb1 -24.326973 -0.000000 -32.862282
LeftUpLeg 0.630585 -7.007014 41.664359
LeftLeg 27.805478 -0.000000 -0.000000
LeftFoot -20.043186 29.303392 -11.109463
LeftToeBase -7.591988 -0.000000 0.000000
RightUpLeg -159.864537 -24.412525 51.105725
RightLeg 31.033279 -0.000000 -0.000000
RightFoot 35.839028 10.433112 -2.649583
RightToeBase 19.794694 -0.000000 -0.000000
631
root 1.136496 33.723073 0.389360 2.667896 -16.172606 -42.688953
Spine 16.607800 22.509553 37.672367
Head -2.216417 -8.131556 15.608762
LeftShoulder -20.997390 30.469495 25.412611
LeftArm 66.045769 -74.816948 -68.160914
LeftForeArm 7.742256 -0.000000 28.938007
LeftHand 9.814101 -0.000000 16.172944
LeftHandThumb1 -26.253704 0.000000 33.147579
RightShoulder -9.416280 46.002496 -29.315712
RightArm 30.882786 76.071587 63.449543
RightForeArm 39.366753 -0.000000 52.395523
RightHand -1.539279 -0.000000 27.117540
RightHandThumb1 -24.326973 -0.000000 -32.862282
LeftUpLeg -1.615563 -5.347392 35.730255
LeftLeg 28.999297 -0.000000 -0.000000
LeftFoot -20.931970 30.655939 -11.037214
LeftToeBase -6.980508 -0.000000 0.000000
RightUpLeg -138.160710 -43.548338 24.686032
RightLeg 9.200013 -0.000000 -0.000000
RightFoot 38.997157 -13.239553 10.694587
RightToeBase 19.208207 -0.000000 -0.000000
632
root 1.123681 33.753423 0.400957 2.846476 -16.040453 -43.130193
Spine 16.357323 22.455231 38.144327
Head -1.922450 -8.101349 15.519216
LeftShoulder -20.987929 30.491089 25.335446
LeftArm 65.777834 -74.744215 -67.951403
LeftForeArm 7.907084 -0.000000 28.839461
LeftHand 9.778636 -0.000000 16.060809
LeftHandThumb1 -26.253704 0.000000 33.147579
RightShoulder -9.519283 46.116421 -29.475390
RightArm 31.599415 76.104829 64.011471
RightForeArm 38.850073 -0.000000 52.658340
RightHand -1.469885 -0.000000 27.183399
RightHandThumb1 -24.326973 -0.000000 -32.862282
LeftUpLeg -1.591752 -5.445715 36.189072
LeftLeg 28.758029 -0.000000 -0.000000
LeftFoot -20.747054 30.786376 -10.794565
LeftToeBase -6.923142 -0.000000 0.000000
RightUpLeg -140.052358 -42.620591 26.826156
RightLeg 10.174535 -0.000000 -0.000000
RightFoot 38.572179 -11.241777 10.040753
RightToeBase 19.156113 -0.000000 -0.000000
633
root 1.124564 33.767148 0.394848 3.102020 -16.033107 -43.275559
Spine 16.092242 22.571237 38.272761
Head -1.749221 -7.993493 15.494570
LeftShoulder -20.986858 30.500736 25.268559
LeftArm 65.448447 -74.705743 -67.716568
LeftForeArm 8.033334 -0.000000 28.724373
LeftHand 9.805631 0.000000 15.964837
LeftHandThumb1 -26.253704 0.000000 33.147579
RightShoulder -9.626720 46.314040 -29.659269
RightArm 32.110894 76.169467 64.416386
RightForeArm 38.261765 -0.000000 52.951203
RightHand -1.521027 -0.000000 27.300674
RightHandThumb1 -24.326973 -0.000000 -32.862282
LeftUpLeg -1.696971 -5.427545 36.317568
LeftLeg 28.595104 -0.000000 -0.000000
LeftFoot -20.570427 31.012728 -10.527600
LeftToeBase -6.863894 -0.000000 0.000000
RightUpLeg -139.814812 -42.968274 26.683501
RightLeg 9.416813 -0.000000 -0.000000
RightFoot 38.547879 -11.279029 10.034676
RightToeBase 19.282391 -0.000000 -0.000000
634
root 1.123197 33.785075 0.387943 3.361581 -16.036884 -43.438593
Spine 15.840961 22.701076 38.418394
Head -1.576354 -7.928251 15.476631
LeftShoulder -20.977424 30.524638 25.180129
LeftArm 65.068597 -74.678716 -67.412836
LeftForeArm 8.146057 -0.000000 28.568335
LeftHand 9.869080 0.000000 16.111484
LeftHandThumb1 -26.253704 0.000000 33.147579
RightShoulder -9.739121 46.456844 -29.826776
RightArm 32.863356 76.264249 65.087594
RightForeArm 37.690657 -0.000000 53.285387
RightHand -1.637105 -0.000000 27.388001
RightHandThumb1 -24.326973 -0.000000 -32.862282
LeftUpLeg -1.779395 -5.411129 36.472594
LeftLeg 28.406349 -0.000000 -0.000000
LeftFoot -20.379681 31.183016 -10.305842
LeftToeBase -6.799849 -0.000000 0.000000
RightUpLeg -139.612052 -43.291109 26.563399
RightLeg 8.767743 -0.000000 -0.000000
RightFoot 38.433202 -11.329070 9.973366
RightToeBase 19.530544 -0.000000 -0.000000
635
root 1.118565 33.804318 0.381174 3.631290 -16.021704 -43.567294
Spine 15.556908 22.833361 38.485220
Head -1.444382 -7.868334 15.508210
LeftShoulder -20.976529 30.537615 25.141933
LeftArm 64.667474 -74.618268 -67.148870
LeftForeArm 8.409655 -0.000000 28.446342
LeftHand 9.599240 -0.000000 16.220937
LeftHandThumb1 -26.253704 0.000000 33.147579
RightShoulder -9.886674 46.588419 -29.989086
RightArm 33.314777 76.247885 65.479109
RightForeArm 37.088030 -0.000000 53.607198
RightHand -1.620946 -0.000000 27.364730
RightHandThumb1 -24.326973 -0.000000 -32.862282
LeftUpLeg -1.890610 -5.421364 36.600885
LeftLeg 28.213933 -0.000000 -0.000000
LeftFoot -20.145018 31.366964 -10.095028
LeftToeBase -6.879596 -0.000000 0.000000
RightUpLeg -139.501582 -43.602043 26.449539
RightLeg 8.209489 -0.000000 -0.000000
RightFoot 38.517383 -11.353678 9.830300
RightToeBase 18.633245 -0.000000 -0.000000
636
root 1.112721 33.825833 0.370124 3.929197 -16.016593 -43.702692
Spine 15.259783 22.995871 38.542342
Head -1.317034 -7.807083 15.551414
LeftShoulder -20.955959 30.560904 25.105018
LeftArm 64.203926 -74.569044 -66.812500
LeftForeArm 8.501068 -0.000000 28.277506
LeftHand 9.533145 -0.000000 16.365963
LeftHandThumb1 -26.253704 0.000000 33.147579
RightShoulder -10.010316 46.699246 -30.120702
RightArm 33.752585 76.254379 65.832379
RightForeArm 36.624461 -0.000000 53.911318
RightHand -1.644529 -0.000000 27.362649
RightHandThumb1 -24.326973 -0.000000 -32.862282
LeftUpLeg -2.025875 -5.402477 36.743108
LeftLeg 28.023195 -0.000000 -0.000000
LeftFoot -19.890520 31.547928 -9.873238
LeftToeBase -6.840055 -0.000000 0.000000
RightUpLeg -139.386835 -43.913875 26.320276
RightLeg 7.662254 -0.000000 -0.000000
RightFoot 38.536720 -11.415646 9.697929
RightToeBase 18.997669 -0.000000 -0.000000
